<svg xmlns="http://www.w3.org/2000/svg" viewBox="0 0 120 32" fill="none">
  <path d="M23.273 0v12.364h-4.655V0h4.655zm-9.31 0v12.364H9.31V0h4.654zM4.655 0v12.364H0V0h4.655zm13.963 16.727v4.655H4.655v-4.655h13.963zM23.273 21.09V32h-4.655V21.09h4.655zm-9.31 0V32H9.31V21.09h4.654zM4.655 21.09V32H0V21.09h4.655zM44.364 0v4.655H32V0h12.364zm4.363 4.655v4.363h-4.363V4.655h4.363zm0 7.709v4.363h-4.363v-4.363h4.363zm0 7.709v4.363h-4.363v-4.363h4.363zm0 7.709V32h-4.363v-4.218h4.363zM44.364 32H32v-4.655h12.364V32zM65.454 0v4.655H53.09V0h12.364zm4.364 4.655v4.363h-4.364V4.655h4.364zm0 7.709v4.363h-4.364v-4.363h4.364zm0 7.709v4.363h-4.364v-4.363h4.364zm0 7.709V32h-4.364v-4.218h4.364zM65.454 32H53.09v-4.655h12.364V32zM86.545 0v4.655H74.182V0h12.363zm4.364 4.655v4.363h-4.364V4.655h4.364zm0 7.709v4.363h-4.364v-4.363h4.364zm0 7.709v4.363h-4.364v-4.363h4.364zm0 7.709V32h-4.364v-4.218h4.364zM86.545 32H74.182v-4.655h12.363V32zM107.636 0V32h-4.363V0h4.363zm12.364 0v4.655h-8.291V0h8.291zm0 13.673v4.654h-8.291v-4.654h8.291zm0 13.672V32h-8.291v-4.655h8.291z" fill="currentColor"/>
</svg>
